<svg xmlns="http://www.w3.org/2000/svg" xmlns:xlink="http://www.w3.org/1999/xlink" width="800px" height="800px" viewBox="0 0 1200 1200">
    <g id="ee8eeece-1873-4800-8c1e-56636446d456">
<rect style="stroke: rgb(193,193,193); stroke-width: 0; stroke-dasharray: none; stroke-linecap: butt; stroke-dashoffset: 0; stroke-linejoin: miter; stroke-miterlimit: 4; fill: rgb(255,255,255); fill-rule: nonzero; opacity: 1;" x="-600" y="-600" rx="0" ry="0" width="1200" height="1200" transform="matrix(1 0 0 1 600 600)"></rect>
</g>
<g id="9b7bcb70-2199-43cb-a8fd-76dd7064c60e">
<g style="">
		<g id="9b7bcb70-2199-43cb-a8fd-76dd7064c60e-child-0">
<path style="stroke: rgb(193,193,193); stroke-width: 0; stroke-dasharray: none; stroke-linecap: butt; stroke-dashoffset: 0; stroke-linejoin: miter; stroke-miterlimit: 4; fill: rgb(0,0,0); fill-rule: nonzero; opacity: 1;" transform="matrix(2.040366 0 0 2.040366 600.000021 600.000029) matrix(1 0 0 1 0 0)  translate(-512.464172, -510.779228)" d="M 497.50 617.34 C 481.96 614.02 466.69 604.93 458.59 594.17 C 456.34 591.18 453.60 588.01 452.51 587.12 C 451.41 586.23 444.66 579.64 437.51 572.47 C 430.35 565.30 420.67 556.60 416.00 553.14 C 405.33 545.23 390.05 537.68 379.00 534.85 C 370.07 532.56 355.28 531.82 347.25 533.26 L 343.00 534.02 L 343.00 529.62 C 343.00 523.25 348.27 503.35 352.50 493.75 C 354.49 489.21 356.40 484.87 356.73 484.10 C 357.55 482.19 348.32 483.26 336.40 486.45 C 331.50 487.76 326.83 488.98 326.00 489.17 C 324.79 489.43 324.56 488.52 324.79 484.50 C 326.42 456.51 337.55 423.55 354.47 396.59 L 360.02 387.76 L 356.92 378.13 C 346.32 345.16 345.61 315.46 354.62 282.00 C 360.15 261.46 372.80 236.04 382.96 225.05 C 390.38 217.01 392.46 217.61 412.00 233.37 C 425.34 244.13 448.14 263.19 463.14 276.10 L 477.77 288.71 L 487.14 287.24 C 499.43 285.32 522.81 285.15 536.18 286.89 L 546.86 288.28 L 553.81 282.39 C 582.40 258.20 616.20 230.15 622.33 225.53 C 634.48 216.38 637.06 217.29 648.80 234.88 C 676.12 275.79 683.36 332.53 667.22 379.35 L 664.33 387.73 L 670.26 397.11 C 685.72 421.61 694.66 446.50 698.51 475.80 C 700.41 490.25 700.41 490.38 698.25 489.51 C 693.82 487.72 673.40 483.00 670.10 483.00 L 666.41 483.00 L 671.23 492.75 C 676.17 502.75 680.32 516.87 681.58 527.96 L 682.28 534.16 L 677.39 533.33 C 669.00 531.90 653.19 532.66 644.50 534.91 C 640.10 536.04 631.90 539.24 626.28 542.01 C 608.73 550.66 602.84 555.76 562.11 597.59 C 544.95 615.22 521.33 622.44 497.50 617.34 Z M 478.84 552.08 C 488.62 555.21 499.97 554.05 505.12 549.39 C 507.08 547.62 507.02 547.54 501.52 544.76 C 488.12 537.98 481.03 525.42 481.01 508.40 L 481.00 500.30 L 487.29 497.10 C 502.74 489.27 524.43 489.58 539.25 497.85 L 544.00 500.50 L 544.00 507.54 C 544.00 525.51 536.05 539.61 522.72 545.27 C 517.51 547.47 517.19 548.79 521.34 550.81 C 529.87 554.97 543.07 554.56 552.82 549.85 C 567.02 542.97 576.19 523.35 574.71 503.03 L 574.16 495.50 L 576.51 500.63 C 577.80 503.45 579.85 510.41 581.07 516.09 C 583.28 526.44 583.39 538.60 581.37 550.50 L 580.69 554.50 L 585.59 549.97 C 598.09 538.45 614.22 527.99 627.36 522.91 C 636.44 519.40 651.26 516.03 657.75 516.01 C 662.71 516.00 662.80 515.65 660.03 507.58 C 656.38 496.97 648.91 484.32 640.80 475.02 L 632.94 466.00 L 651.72 466.04 C 662.05 466.07 672.53 466.48 675.00 466.97 C 677.47 467.45 679.80 467.55 680.17 467.17 C 681.33 466.00 676.11 448.13 670.90 435.46 C 661.99 413.78 644.69 385.22 629.51 367.13 C 616.87 352.08 596.64 335.92 579.75 327.39 C 573.02 323.99 571.25 322.00 574.95 322.00 C 576.02 322.00 580.63 320.64 585.20 318.98 C 605.54 311.57 619.64 296.39 627.43 273.47 C 629.71 266.74 629.82 266.60 630.65 269.50 C 631.12 271.15 631.49 278.12 631.47 285.00 C 631.44 298.70 629.59 306.85 623.95 318.25 C 622.38 321.41 621.50 324.00 621.99 324.00 C 623.45 324.00 635.38 313.51 638.35 309.61 C 642.52 304.15 643.27 304.90 642.48 313.75 C 641.61 323.58 639.80 332.39 636.61 342.43 L 634.10 350.35 L 637.21 353.93 C 644.16 361.93 652.15 370.18 652.56 369.77 C 652.80 369.53 653.85 366.00 654.89 361.91 C 662.81 330.95 658.84 293.09 644.44 262.22 C 639.49 251.62 633.26 241.00 631.99 241.00 C 631.28 241.00 617.32 251.92 612.00 256.64 C 611.17 257.37 607.35 260.54 603.50 263.69 C 591.14 273.79 569.72 292.24 562.20 299.26 C 554.63 306.34 550.20 308.94 549.00 307.00 C 548.64 306.41 547.59 306.22 546.67 306.57 C 545.75 306.93 545.00 306.77 545.00 306.23 C 545.00 304.60 527.21 302.88 511.89 303.03 C 499.44 303.16 479.07 305.54 473.83 307.50 C 473.09 307.77 467.88 303.77 462.00 298.39 C 449.71 287.15 430.00 270.41 421.53 264.00 C 415.64 259.55 413.39 257.69 409.50 254.02 C 405.25 250.02 393.45 241.01 392.45 241.01 C 389.34 240.99 376.27 268.03 371.67 284.00 C 364.27 309.67 363.54 337.96 369.66 362.00 C 370.57 365.58 371.59 368.82 371.92 369.21 C 372.26 369.61 376.68 365.49 381.75 360.05 L 390.97 350.18 L 388.47 344.71 C 384.25 335.50 378.97 304.92 381.62 305.04 C 382.10 305.06 383.97 307.07 385.76 309.51 C 389.08 314.02 400.31 324.00 402.07 324.00 C 402.60 324.00 401.95 321.86 400.62 319.24 C 399.30 316.63 396.94 310.44 395.39 305.49 C 392.90 297.58 392.57 295.05 392.67 284.50 C 392.72 277.90 393.19 271.15 393.71 269.50 C 394.60 266.65 394.77 266.90 397.37 275.00 C 404.48 297.16 420.39 313.46 440.90 319.61 C 445.63 321.03 450.16 322.40 450.97 322.65 C 451.82 322.91 448.86 325.02 444.00 327.62 C 439.36 330.10 433.41 333.67 430.78 335.56 C 428.15 337.45 425.74 339.00 425.42 339.00 C 425.11 339.00 422.07 341.12 418.67 343.70 C 398.78 358.85 376.20 388.79 360.00 421.50 C 353.21 435.20 345.73 455.43 344.44 463.61 L 343.79 467.71 L 348.64 466.92 C 354.34 465.98 391.00 465.72 391.00 466.61 C 391.00 466.95 387.74 470.70 383.75 474.94 C 378.88 480.13 374.93 485.65 371.71 491.79 C 365.78 503.07 361.56 514.94 363.29 515.46 C 363.96 515.67 367.89 516.08 372.03 516.38 C 392.21 517.87 415.52 529.13 436.65 547.62 C 440.04 550.58 443.00 553.00 443.22 553.00 C 443.45 553.00 443.30 550.64 442.89 547.75 C 440.77 532.86 442.30 515.60 446.89 502.56 C 450.21 493.14 451.31 493.18 450.50 502.70 C 449.18 518.20 453.31 531.96 462.18 541.58 C 467.19 547.02 471.50 549.74 478.84 552.08 Z M 410.33 800.60 C 408.58 799.81 406.67 798.26 406.08 797.15 C 405.35 795.78 405.00 777.96 405.00 741.52 L 405.00 687.91 L 407.45 685.45 C 409.58 683.33 410.81 683.00 416.70 683.02 C 424.11 683.03 425.12 683.40 426.87 686.72 L 428.03 688.93 L 432.64 686.01 C 445.65 677.76 466.43 680.26 478.96 691.58 C 489.12 700.76 493.41 711.40 492.82 726.00 C 492.49 734.11 491.97 736.49 489.26 742.27 C 485.09 751.17 477.21 759.06 468.27 763.29 C 461.98 766.27 460.75 766.50 450.96 766.50 C 441.21 766.50 439.97 766.27 434.21 763.42 L 428.00 760.34 L 428.00 778.50 C 428.00 796.50 427.98 796.67 425.53 798.97 C 422.46 801.86 414.90 802.67 410.33 800.60 Z M 314.50 766.33 C 313.40 766.04 311.49 764.87 310.25 763.73 L 308.00 761.65 L 308.00 709.26 C 308.00 677.00 308.38 656.17 308.98 655.04 C 311.01 651.25 320.73 649.78 325.94 652.47 C 330.07 654.61 331.00 658.60 331.00 674.23 C 331.00 681.90 331.34 688.00 331.75 687.79 C 343.76 681.68 344.38 681.50 353.50 681.51 C 364.25 681.51 370.42 683.38 378.31 689.04 C 384.71 693.62 389.94 700.34 393.11 708.04 C 396.30 715.83 396.30 731.04 393.10 739.24 C 390.18 746.72 384.47 754.23 377.99 759.10 C 366.68 767.60 349.41 769.43 337.37 763.42 C 334.16 761.81 331.18 760.35 330.76 760.17 C 330.34 759.98 330.00 760.54 330.00 761.39 C 330.00 764.75 320.23 767.86 314.50 766.33 Z M 563.33 765.12 C 552.42 761.07 543.96 753.15 538.67 742.02 C 536.16 736.73 535.52 733.94 535.18 726.84 C 534.24 707.26 544.53 690.74 562.00 683.80 C 566.27 682.10 569.63 681.61 577.08 681.58 C 585.86 681.55 587.19 681.81 593.03 684.70 L 599.40 687.86 L 601.52 685.57 C 605.26 681.54 617.05 681.06 621.25 684.77 C 622.86 686.18 623.00 689.34 623.00 723.54 C 623.00 755.08 623.13 762.35 619.82 764.63 C 618.70 765.40 617.19 765.60 615.14 765.97 C 609.49 767.01 604.00 765.68 601.39 762.66 L 599.27 760.21 L 593.01 763.31 C 587.63 765.98 585.44 766.46 577.62 766.73 C 570.52 766.97 567.36 766.62 563.33 765.12 Z M 644.36 766.28 C 642.29 766.09 640.77 766.02 639.64 765.32 C 636.39 763.29 636.45 755.96 636.22 724.99 L 635.93 688.19 L 638.27 685.47 C 640.40 683.00 641.29 682.73 647.89 682.62 C 654.66 682.51 655.34 682.69 657.54 685.25 C 660.36 688.53 660.43 688.54 663.99 686.01 C 665.53 684.91 669.64 683.28 673.13 682.39 C 689.89 678.09 706.21 685.95 713.87 702.00 C 716.47 707.44 716.50 707.80 716.82 733.67 C 717.18 762.99 717.01 763.85 710.34 766.05 C 705.85 767.53 698.44 766.44 695.93 763.93 C 694.14 762.14 694.00 760.38 694.00 739.21 C 694.00 717.55 693.89 716.21 691.75 712.02 C 689.06 706.76 685.76 704.16 680.73 703.34 C 671.74 701.88 662.26 707.92 660.11 716.48 C 659.48 718.99 659.00 729.67 659.00 741.27 C 659.00 761.13 658.94 761.70 656.75 763.72 C 654.20 766.06 650.40 766.84 644.36 766.28 Z M 509.50 766.33 C 508.40 766.04 506.49 764.87 505.25 763.73 L 503.00 761.65 L 503.00 709.41 C 503.00 680.67 503.28 656.44 503.62 655.54 C 504.62 652.95 509.50 651.00 515.03 651.00 C 519.37 651.00 520.60 651.45 523.10 653.95 L 526.05 656.90 L 525.50 760.96 L 522.99 763.46 C 520.43 766.02 513.70 767.46 509.50 766.33 Z M 498.11 599.42 C 509.91 602.59 526.41 600.86 537.43 595.29 C 544.89 591.51 557.00 578.93 560.78 571.02 C 562.48 567.45 563.67 564.34 563.43 564.10 C 563.19 563.86 561.98 564.57 560.75 565.69 C 557.19 568.92 550.05 572.60 543.00 574.84 C 517.92 582.81 484.99 579.60 466.89 567.42 C 464.09 565.54 461.60 564.00 461.35 564.00 C 461.10 564.00 462.83 567.70 465.18 572.23 C 472.32 585.96 484.05 595.64 498.11 599.42 Z M 549.32 447.90 C 548.12 447.95 546.49 448.65 545.69 449.45 C 544.42 450.72 544.16 450.41 543.61 446.97 C 542.91 442.56 545.34 432.47 548.98 424.76 C 554.32 413.43 568.42 406.84 582.84 408.95 C 590.10 410.01 598.50 413.79 598.50 416.00 C 598.50 416.83 595.91 419.03 592.75 420.89 C 588.30 423.52 587.00 424.82 587.00 426.67 C 587.00 433.06 580.87 441.91 574.17 445.18 C 570.49 446.98 567.60 447.50 560.50 447.63 C 555.55 447.72 550.52 447.84 549.32 447.90 Z M 481.13 445.32 C 481.20 450.93 480.91 451.48 478.90 449.48 C 477.82 448.39 474.52 447.93 466.42 447.74 C 456.92 447.52 454.73 447.14 450.46 444.95 C 444.46 441.89 439.42 434.96 438.44 428.46 C 437.80 424.19 437.45 423.79 431.35 420.38 C 424.12 416.34 424.13 415.54 431.43 411.74 C 437.11 408.78 453.18 408.03 459.47 410.44 C 466.03 412.94 471.54 417.37 474.60 422.58 C 478.01 428.41 481.05 438.97 481.13 445.32 Z M 459.93 742.44 C 477.54 732.86 472.55 706.09 452.64 703.36 C 438.41 701.41 426.86 712.76 428.26 727.31 C 429.63 741.56 446.62 749.68 459.93 742.44 Z M 362.09 742.67 C 364.52 741.39 367.84 738.45 369.47 736.13 C 371.91 732.66 372.50 730.73 372.76 725.21 C 373.02 719.66 372.68 717.82 370.78 714.55 C 367.54 708.96 361.02 704.28 355.28 703.41 C 341.71 701.38 330.61 710.84 330.64 724.41 C 330.66 731.13 332.23 734.99 336.66 739.19 C 343.16 745.37 354.15 746.87 362.09 742.67 Z M 587.77 743.45 C 595.64 740.16 599.94 733.28 599.98 723.91 C 600.05 706.12 578.74 696.51 565.33 708.28 C 553.27 718.87 556.70 738.62 571.50 743.79 C 575.98 745.36 583.58 745.20 587.77 743.45 Z M 508.00 514.51 C 510.64 515.19 526.77 513.97 529.99 512.85 C 533.89 511.50 533.47 510.05 528.45 507.50 C 525.16 505.84 522.56 505.51 513.00 505.53 C 503.20 505.56 500.76 505.90 496.50 507.85 C 491.87 509.96 491.64 510.23 493.36 511.51 C 494.39 512.26 497.76 513.16 500.86 513.50 C 503.96 513.84 507.17 514.30 508.00 514.51 Z M 453.07 431.37 C 456.59 435.84 464.00 434.35 464.00 429.16 C 464.00 425.35 462.30 424.00 457.50 424.00 C 451.03 424.00 449.40 426.70 453.07 431.37 Z M 562.65 432.17 C 566.88 436.84 575.68 431.29 572.83 425.75 C 571.76 423.68 564.12 423.28 562.20 425.20 C 560.51 426.89 560.71 430.02 562.65 432.17 Z" stroke-linecap="round"></path>
</g>
		<g id="9b7bcb70-2199-43cb-a8fd-76dd7064c60e-child-1">
<path style="stroke: rgb(193,193,193); stroke-width: 0; stroke-dasharray: none; stroke-linecap: butt; stroke-dashoffset: 0; stroke-linejoin: miter; stroke-miterlimit: 4; fill: rgb(41,110,148); fill-rule: nonzero; opacity: 1;" transform="matrix(2.040366 0 0 2.040366 600.000021 600.000029) matrix(1 0 0 1 -0.4025 -152.809228)  translate(-512.061672, -357.97)" d="M 665.56 466.30 L 677.91 466.50 L 675.20 464.24 C 664.98 455.68 647.06 447.35 633.50 444.85 C 628.13 443.86 627.05 443.35 627.63 442.07 C 632.19 431.87 633.37 426.20 633.37 414.50 C 633.37 404.62 632.91 400.79 630.72 392.80 C 623.53 366.48 602.35 338.98 580.77 327.96 C 575.96 325.51 572.12 323.05 572.24 322.50 C 572.35 321.95 571.62 320.27 570.62 318.77 L 568.80 316.05 L 577.34 305.66 C 588.72 291.83 602.07 277.11 619.69 258.97 C 629.00 249.39 633.61 244.01 633.66 242.67 C 636.16 246.06 640.67 254.15 644.44 262.22 C 658.84 293.09 662.81 330.95 654.89 361.91 C 653.85 366.00 652.80 369.53 652.56 369.77 C 652.15 370.18 644.16 361.93 637.21 353.93 L 634.10 350.35 L 636.61 342.43 C 639.80 332.39 641.61 323.58 642.48 313.75 C 643.27 304.90 642.52 304.15 638.35 309.61 C 635.38 313.51 623.45 324.00 621.99 324.00 C 621.50 324.00 622.38 321.41 623.95 318.25 C 629.59 306.85 631.44 298.70 631.47 285.00 C 631.49 278.12 631.12 271.15 630.65 269.50 C 629.82 266.60 629.71 266.74 627.43 273.47 C 619.64 296.39 605.54 311.57 585.20 318.98 C 580.63 320.64 576.02 322.00 574.95 322.00 C 571.25 322.00 573.02 323.99 579.75 327.39 C 596.64 335.92 616.87 352.08 629.51 367.13 C 644.69 385.22 661.99 413.78 670.90 435.46 C 676.11 448.13 681.33 466.00 680.17 467.17 C 679.80 467.55 677.47 467.45 675.00 466.97 C 673.69 466.71 670.14 466.47 665.56 466.30 Z M 394.40 242.11 C 393.27 241.41 392.55 241.12 392.35 241.31 C 390.63 243.04 394.60 248.20 410.60 265.00 C 431.03 286.44 449.00 306.57 449.00 308.00 C 449.00 309.95 449.20 310.53 450.78 313.21 C 452.26 315.71 452.25 316.06 450.69 317.79 C 448.54 320.17 448.55 321.61 450.72 322.45 C 450.90 322.52 451.02 322.60 451.08 322.71 C 451.05 322.68 451.02 322.66 450.97 322.65 C 450.16 322.40 445.63 321.03 440.90 319.61 C 420.39 313.46 404.48 297.16 397.37 275.00 C 394.77 266.90 394.60 266.65 393.71 269.50 C 393.19 271.15 392.72 277.90 392.67 284.50 C 392.57 295.05 392.90 297.58 395.39 305.49 C 396.94 310.44 399.30 316.63 400.62 319.24 C 401.95 321.86 402.60 324.00 402.07 324.00 C 400.31 324.00 389.08 314.02 385.76 309.51 C 383.97 307.07 382.10 305.06 381.62 305.04 C 378.97 304.92 384.25 335.50 388.47 344.71 L 390.97 350.18 L 381.75 360.05 C 376.68 365.49 372.26 369.61 371.92 369.21 C 371.59 368.82 370.57 365.58 369.66 362.00 C 363.54 337.96 364.27 309.67 371.67 284.00 C 376.27 268.03 389.34 240.99 392.45 241.01 C 392.66 241.01 393.37 241.42 394.40 242.11 Z M 443.99 327.62 C 434.50 332.70 422.57 340.91 423.44 341.77 C 423.75 342.08 420.94 345.53 417.19 349.42 C 394.26 373.25 384.68 408.66 394.07 434.87 C 395.18 437.96 396.33 441.23 396.63 442.12 C 397.06 443.42 396.19 443.88 392.33 444.43 C 380.75 446.05 365.35 452.82 353.50 461.50 L 348.04 465.50 L 369.52 465.77 C 375.55 465.85 381.02 465.98 384.94 466.14 C 374.27 465.90 352.88 466.22 348.64 466.92 L 343.79 467.71 L 344.44 463.61 C 345.73 455.43 353.21 435.20 360.00 421.50 C 376.20 388.79 398.78 358.85 418.67 343.70 C 422.07 341.12 425.11 339.00 425.42 339.00 C 425.74 339.00 428.15 337.45 430.78 335.56 C 433.41 333.67 439.35 330.10 443.99 327.62 Z M 632.94 466.00 L 632.75 465.78 L 648.86 466.04 L 632.94 466.00 Z M 410.45 254.91 C 407.32 252.15 404.36 249.66 401.77 247.58 C 404.78 249.92 407.77 252.39 409.50 254.02 C 409.83 254.33 410.14 254.62 410.45 254.91 Z M 451.11 322.85 C 451.11 323.55 449.00 324.94 444.04 327.60 C 448.22 325.36 450.98 323.49 451.11 322.85 Z M 632.05 241.01 C 631.43 241.17 627.20 244.32 622.57 247.95 C 627.29 244.24 631.61 241.00 631.99 241.00 C 632.01 241.00 632.03 241.00 632.05 241.01 Z M 391.00 466.62 C 391.00 466.63 391.00 466.63 391.00 466.63 C 391.00 466.95 387.74 470.70 383.75 474.94 C 387.69 470.74 390.92 467.03 391.00 466.62 Z M 415.44 259.27 C 414.76 258.73 414.24 258.29 413.94 258.03 C 414.43 258.44 414.92 258.85 415.44 259.27 Z" stroke-linecap="round"></path>
</g>
		<g id="9b7bcb70-2199-43cb-a8fd-76dd7064c60e-child-2">
<path style="stroke: rgb(193,193,193); stroke-width: 0; stroke-dasharray: none; stroke-linecap: butt; stroke-dashoffset: 0; stroke-linejoin: miter; stroke-miterlimit: 4; fill: rgb(55,142,181); fill-rule: nonzero; opacity: 1;" transform="matrix(2.040366 0 0 2.040366 600.000021 600.000029) matrix(1 0 0 1 -0.844172 -113.554228)  translate(-511.62, -397.225)" d="M 481.13 445.32 C 481.10 443.29 480.78 440.84 480.23 438.24 C 482.22 445.44 482.82 443.35 483.62 429.50 C 484.83 408.76 479.00 395.19 465.39 387.00 C 459.83 383.65 459.17 383.50 450.04 383.51 C 441.30 383.51 440.00 383.77 434.48 386.65 C 421.51 393.42 412.00 408.84 412.00 423.10 C 412.00 429.19 415.68 439.13 420.07 444.89 C 423.75 449.72 423.94 450.21 421.84 449.62 C 403.73 444.51 400.26 443.86 393.96 444.41 C 389.66 444.78 384.77 445.92 379.70 447.66 C 384.16 446.09 388.46 444.97 392.33 444.43 C 396.19 443.88 397.06 443.42 396.63 442.12 C 396.33 441.23 395.18 437.96 394.07 434.87 C 384.68 408.66 394.26 373.25 417.19 349.42 C 420.94 345.53 423.75 342.08 423.44 341.77 C 422.57 340.91 434.54 332.67 444.03 327.60 C 450.25 324.28 451.99 322.93 450.72 322.45 C 448.55 321.61 448.54 320.17 450.69 317.79 C 452.25 316.06 452.26 315.71 450.78 313.21 C 449.20 310.53 449.00 309.95 449.00 308.00 C 449.00 307.47 446.50 304.33 442.30 299.49 C 448.02 305.96 452.79 311.00 453.24 311.00 C 453.72 311.00 453.91 311.34 453.66 311.75 C 453.41 312.16 454.94 314.50 457.05 316.95 L 460.90 321.40 L 474.20 318.24 C 503.87 311.20 524.33 311.26 549.86 318.47 C 556.26 320.27 561.82 321.81 562.21 321.88 C 563.02 322.02 568.23 316.50 575.76 307.59 L 568.80 316.05 L 570.62 318.77 C 571.62 320.27 572.35 321.95 572.24 322.50 C 572.12 323.05 575.96 325.51 580.77 327.96 C 602.35 338.98 623.53 366.48 630.72 392.80 C 632.91 400.79 633.37 404.62 633.37 414.50 C 633.37 426.20 632.19 431.87 627.63 442.07 C 627.07 443.31 628.05 443.82 632.93 444.75 C 626.01 443.74 617.22 445.02 606.82 448.56 C 603.07 449.84 600.00 450.63 600.00 450.32 C 600.00 450.02 601.42 448.15 603.15 446.18 C 618.55 428.64 612.88 399.91 591.49 387.05 C 586.36 383.97 584.81 383.56 576.97 383.18 C 569.23 382.81 567.56 383.06 562.80 385.23 C 548.90 391.60 541.00 405.01 541.00 422.25 C 541.00 430.88 542.10 441.00 543.04 441.00 C 543.36 441.00 543.95 439.65 544.51 437.75 C 543.65 441.53 543.28 444.88 543.61 446.97 C 544.16 450.41 544.42 450.72 545.69 449.45 C 545.65 449.49 545.61 449.53 545.57 449.57 C 544.21 450.93 544.00 455.36 544.00 482.86 C 544.00 489.90 543.98 495.65 543.91 500.45 L 539.25 497.85 C 532.57 494.12 524.48 492.01 516.21 491.53 C 522.49 491.87 528.59 493.16 534.13 495.40 C 537.36 496.70 540.00 497.63 540.00 497.46 C 540.00 497.30 537.80 493.61 535.11 489.28 C 524.99 472.95 520.02 461.35 515.54 443.50 C 514.02 437.45 512.45 432.14 512.04 431.70 C 511.63 431.26 510.04 435.98 508.51 442.20 C 503.85 461.16 499.22 472.36 488.66 490.18 L 484.11 497.87 L 490.36 495.52 C 492.54 494.70 494.78 494.00 497.04 493.42 C 493.61 494.34 490.33 495.56 487.29 497.10 L 481.07 500.26 C 481.02 495.78 481.01 490.41 481.01 483.90 C 481.00 456.38 480.89 451.87 479.60 450.12 C 480.98 451.25 481.19 450.20 481.13 445.32 Z M 532.62 397.29 L 533.28 401.08 L 536.59 394.23 C 538.76 389.75 541.81 385.58 545.42 382.16 C 550.70 377.17 561.62 371.00 565.19 371.00 C 568.25 371.00 568.08 369.18 564.96 368.49 C 556.34 366.60 543.05 366.17 536.27 367.57 C 532.11 368.43 530.65 373.30 531.34 383.97 C 531.69 389.21 532.26 395.21 532.62 397.29 Z M 488.01 393.75 C 489.37 396.64 490.79 399.00 491.17 399.00 C 491.56 399.00 492.15 396.86 492.48 394.25 C 492.81 391.64 493.31 387.59 493.60 385.25 C 494.40 378.74 493.04 371.95 490.40 369.31 C 488.30 367.21 487.20 367.00 478.21 367.00 C 468.00 367.00 457.00 368.63 457.00 370.14 C 457.00 370.61 458.01 371.00 459.25 371.00 C 467.28 371.00 483.29 383.66 488.01 393.75 Z M 585.18 296.36 C 591.69 288.75 598.70 281.06 614.75 263.74 C 623.69 254.10 631.00 245.49 631.00 244.60 C 631.00 243.72 631.70 243.00 632.56 243.00 C 633.17 243.00 633.56 242.77 633.61 242.44 C 633.62 242.46 633.63 242.48 633.64 242.51 C 634.03 243.52 629.43 248.95 619.69 258.97 C 605.95 273.11 594.81 285.17 585.18 296.36 Z M 429.51 285.22 C 423.85 279.05 417.36 272.10 410.60 265.00 C 394.60 248.20 390.63 243.04 392.35 241.31 C 392.77 240.90 395.55 242.70 399.63 245.88 C 397.24 244.13 395.53 243.13 395.24 243.43 C 394.86 243.80 395.22 244.53 396.03 245.04 C 396.87 245.57 397.00 245.98 396.34 245.98 C 393.51 246.02 397.25 250.85 412.67 267.10 C 417.74 272.45 423.93 279.11 429.51 285.22 Z M 531.72 539.47 C 536.62 534.96 540.21 528.84 542.19 521.60 C 541.39 524.95 540.22 527.60 538.55 530.90 C 537.02 533.91 534.60 536.90 531.72 539.47 Z M 557.68 546.86 C 556.14 548.02 554.51 549.03 552.82 549.85 C 550.16 551.13 547.24 552.10 544.23 552.74 C 548.61 551.64 553.10 549.86 556.24 547.85 C 556.72 547.53 557.20 547.21 557.68 546.86 Z M 526.07 552.41 C 527.54 552.80 529.32 553.17 531.01 553.45 C 527.70 553.08 524.58 552.29 521.89 551.07 C 523.03 551.52 524.43 551.97 526.07 552.41 Z M 470.68 417.58 C 467.67 414.58 463.80 412.09 459.47 410.44 C 464.05 412.19 467.71 414.47 470.68 417.58 Z M 485.02 528.04 C 483.71 525.34 482.83 523.04 482.24 519.86 C 482.90 522.78 483.83 525.50 485.02 528.04 Z M 549.32 447.90 C 549.91 447.87 551.41 447.83 553.38 447.78 C 550.54 447.86 548.94 447.97 547.92 448.18 C 548.40 448.02 548.89 447.92 549.32 447.90 Z M 552.42 419.41 C 553.16 418.47 553.90 417.66 554.64 417.01 C 555.17 416.55 555.70 416.11 556.25 415.68 C 554.84 416.81 553.56 418.05 552.42 419.41 Z M 566.21 410.35 C 571.41 408.60 577.06 408.10 582.84 408.95 C 577.06 408.10 571.34 408.66 566.21 410.35 Z M 489.20 534.84 C 487.91 533.24 486.80 531.58 485.95 529.91 C 485.87 529.74 485.78 529.57 485.70 529.41 C 486.71 531.34 487.88 533.15 489.20 534.84 Z M 352.87 461.96 L 348.11 465.50 L 369.52 465.77 L 348.04 465.50 L 352.87 461.96 Z M 409.54 254.11 C 410.93 255.33 412.37 256.60 413.82 257.91 C 412.57 256.85 411.26 255.68 409.54 254.11 Z M 545.45 434.17 C 546.01 432.13 546.70 430.13 547.48 428.22 C 546.72 430.17 546.03 432.19 545.45 434.17 Z M 655.81 452.37 C 663.19 455.82 670.14 460.00 675.20 464.24 C 670.18 460.03 663.20 455.83 655.81 452.37 Z M 415.41 259.25 C 416.94 260.48 419.27 262.29 421.53 264.00 C 418.84 261.97 417.06 260.60 415.41 259.25 Z M 622.57 247.96 C 618.64 251.05 614.44 254.48 612.00 256.64 C 614.54 254.38 618.69 251.00 622.57 247.96 Z M 478.66 449.27 C 478.09 448.91 477.33 448.64 476.24 448.42 C 477.41 448.64 478.18 448.92 478.66 449.27 Z M 632.65 241.20 C 632.45 241.09 632.25 241.02 632.07 241.00 C 632.08 241.00 632.09 241.00 632.10 241.00 C 632.27 241.00 632.46 241.07 632.65 241.20 Z M 521.40 545.86 C 521.79 545.67 522.23 545.47 522.72 545.27 C 522.90 545.19 523.07 545.11 523.25 545.03 C 523.09 545.11 522.92 545.18 522.75 545.25 C 522.28 545.45 521.83 545.66 521.40 545.86 Z" stroke-linecap="round"></path>
</g>
		<g id="9b7bcb70-2199-43cb-a8fd-76dd7064c60e-child-3">
<path style="stroke: rgb(193,193,193); stroke-width: 0; stroke-dasharray: none; stroke-linecap: butt; stroke-dashoffset: 0; stroke-linejoin: miter; stroke-miterlimit: 4; fill: rgb(81,161,186); fill-rule: nonzero; opacity: 1;" transform="matrix(2.040366 0 0 2.040366 600.000021 600.000029) matrix(1 0 0 1 1.888962 -141.344228)  translate(-514.353134, -369.435)" d="M 549.86 318.47 C 524.33 311.26 503.87 311.20 474.20 318.24 L 460.90 321.40 L 457.05 316.95 C 454.94 314.50 453.41 312.16 453.66 311.75 C 453.91 311.34 453.72 311.00 453.24 311.00 C 452.75 311.00 447.14 305.04 440.77 297.75 C 434.40 290.46 421.75 276.67 412.67 267.10 C 397.25 250.85 393.51 246.02 396.34 245.98 C 397.00 245.98 396.87 245.57 396.03 245.04 C 395.22 244.53 394.86 243.80 395.24 243.43 C 395.86 242.81 402.65 247.84 409.00 253.62 C 414.16 258.32 415.72 259.61 421.53 264.00 C 424.02 265.88 427.48 268.66 431.44 271.93 C 428.58 269.68 426.52 268.15 426.40 268.26 C 426.17 268.50 426.98 269.98 428.22 271.55 C 429.45 273.12 429.97 274.10 429.38 273.73 C 428.78 273.36 427.80 274.13 427.20 275.46 C 426.35 277.32 426.43 278.11 427.56 279.05 C 428.35 279.71 429.00 280.72 429.00 281.30 C 429.00 281.88 427.79 281.26 426.31 279.92 C 424.83 278.59 425.84 280.08 428.56 283.24 C 433.01 288.41 436.29 290.96 434.37 287.75 C 433.79 286.80 433.96 286.76 435.06 287.61 C 436.69 288.87 440.00 289.07 440.00 287.90 C 440.00 287.48 442.26 287.24 445.01 287.37 C 447.99 287.51 449.18 287.42 449.14 286.96 C 451.26 288.80 453.34 290.62 455.33 292.39 C 454.91 292.15 454.60 292.09 454.46 292.23 C 454.05 292.63 454.28 293.64 454.98 294.48 C 455.68 295.31 455.90 296.00 455.47 296.00 C 455.04 296.00 455.53 296.93 456.56 298.06 C 458.16 299.84 458.22 300.27 456.96 301.16 C 455.80 301.98 455.88 302.06 457.39 301.57 C 458.90 301.08 459.06 301.23 458.15 302.32 C 457.53 303.07 457.34 304.00 457.73 304.39 C 458.12 304.79 457.71 304.83 456.82 304.48 C 455.00 303.79 453.41 305.52 454.98 306.49 C 455.54 306.84 455.99 307.65 455.98 308.31 C 455.98 309.06 455.70 309.13 455.23 308.50 C 454.83 307.95 453.40 306.60 452.06 305.50 L 449.62 303.50 L 452.06 306.85 C 455.95 312.19 457.13 313.80 456.95 313.97 C 456.87 314.04 456.51 313.82 456.00 313.52 C 454.42 312.57 454.77 313.12 458.88 318.11 C 459.64 319.03 460.76 319.68 461.38 319.55 C 473.12 317.08 484.12 312.02 480.74 310.66 C 480.06 310.38 480.85 310.11 482.50 310.05 C 486.12 309.91 489.80 307.52 487.80 306.60 C 487.09 306.27 488.23 306.25 490.35 306.56 C 492.76 306.92 493.97 306.76 493.59 306.14 C 493.25 305.60 493.77 304.92 494.74 304.63 C 498.25 303.59 483.72 305.25 478.30 306.51 L 472.73 307.80 L 467.11 303.25 C 464.03 300.75 460.08 297.08 458.35 295.10 C 458.33 295.08 458.31 295.05 458.29 295.03 C 459.58 296.19 460.83 297.32 462.00 298.39 C 467.88 303.77 473.09 307.77 473.83 307.50 C 479.07 305.54 499.44 303.16 511.89 303.03 C 527.21 302.88 545.00 304.60 545.00 306.23 C 545.00 306.77 545.75 306.93 546.67 306.57 C 547.59 306.22 548.64 306.41 549.00 307.00 C 550.20 308.94 554.63 306.34 562.20 299.26 C 569.72 292.24 591.14 273.79 603.50 263.69 C 607.35 260.54 611.17 257.37 612.00 256.64 C 617.36 251.88 631.28 241.00 632.01 241.00 C 632.49 241.00 633.16 241.45 633.50 242.00 C 633.84 242.55 633.42 243.00 632.56 243.00 C 631.70 243.00 631.00 243.72 631.00 244.60 C 631.00 245.49 623.69 254.10 614.75 263.74 C 606.07 273.10 600.04 279.65 595.30 284.89 L 593.19 285.35 C 591.33 285.75 591.11 285.58 592.02 284.48 C 592.92 283.39 592.64 283.17 590.57 283.40 C 587.94 283.68 585.70 285.00 587.86 285.00 C 588.65 285.00 588.50 285.83 587.40 287.52 C 585.83 289.91 585.84 290.00 587.62 289.37 C 589.16 288.83 589.27 288.95 588.25 290.05 C 587.56 290.79 587.00 291.81 587.00 292.31 C 587.00 292.81 587.79 292.29 588.75 291.16 C 589.71 290.02 591.62 288.14 593.00 286.97 L 594.79 285.45 C 588.41 292.52 584.37 297.24 579.18 303.50 C 569.83 314.78 563.13 322.04 562.21 321.88 C 561.82 321.81 556.26 320.27 549.86 318.47 Z M 488.66 490.18 C 499.22 472.36 503.85 461.16 508.51 442.20 C 510.04 435.98 511.63 431.26 512.04 431.70 C 512.45 432.14 514.02 437.45 515.54 443.50 C 518.59 455.65 521.87 464.90 526.84 474.72 C 525.38 471.97 523.56 468.93 522.50 467.50 C 521.29 465.85 518.82 460.23 517.01 455.00 C 515.21 449.77 513.31 444.38 512.78 443.00 C 511.94 440.81 511.37 441.97 508.11 452.50 C 506.06 459.10 503.87 465.40 503.23 466.50 C 502.60 467.60 499.35 474.08 496.02 480.90 C 492.69 487.73 489.18 493.90 488.23 494.62 C 485.94 496.36 487.80 496.34 492.82 494.56 C 498.47 492.57 504.95 491.54 511.46 491.46 C 504.35 491.61 497.13 492.97 490.36 495.52 L 484.11 497.87 Z M 554.76 317.15 C 559.44 318.78 563.00 319.40 563.00 318.58 C 563.00 318.35 563.30 317.37 563.67 316.41 C 564.19 315.07 563.96 314.80 562.72 315.28 C 561.62 315.70 561.27 315.47 561.62 314.55 C 562.18 313.08 558.19 309.77 556.85 310.59 C 556.39 310.87 556.29 310.41 556.62 309.55 C 556.97 308.63 556.68 308.00 555.89 308.00 C 555.16 308.00 557.25 305.20 560.53 301.78 L 566.50 295.55 L 559.82 301.53 C 555.96 304.98 552.85 308.66 552.45 310.25 C 552.06 311.76 551.36 313.00 550.88 313.00 C 550.39 313.00 550.00 313.56 550.01 314.25 C 550.01 314.94 552.15 316.24 554.76 317.15 Z M 569.00 293.64 C 569.00 293.94 570.39 293.01 572.08 291.58 C 573.78 290.15 575.65 289.28 576.24 289.65 C 576.85 290.03 577.02 289.84 576.63 289.22 C 576.24 288.58 576.70 288.13 577.73 288.15 C 580.20 288.18 587.15 285.48 586.43 284.76 C 586.11 284.44 586.65 282.94 587.63 281.44 C 589.45 278.66 590.26 276.00 589.29 276.00 C 588.54 276.00 569.00 292.99 569.00 293.64 Z M 461.00 300.65 C 461.00 301.43 460.23 300.88 458.00 298.50 C 456.71 297.12 456.01 296.00 456.46 296.00 C 457.21 296.00 461.00 299.88 461.00 300.65 Z M 535.31 489.60 C 537.91 493.79 540.00 497.30 540.00 497.46 C 540.00 497.49 539.92 497.49 539.77 497.45 C 539.77 497.45 539.78 497.45 539.78 497.45 C 539.94 497.35 537.93 493.84 535.31 489.60 Z" stroke-linecap="round"></path>
</g>
		<g id="9b7bcb70-2199-43cb-a8fd-76dd7064c60e-child-4">
<path style="stroke: rgb(193,193,193); stroke-width: 0; stroke-dasharray: none; stroke-linecap: butt; stroke-dashoffset: 0; stroke-linejoin: miter; stroke-miterlimit: 4; fill: rgb(89,168,195); fill-rule: nonzero; opacity: 1;" transform="matrix(2.040366 0 0 2.040366 600.000021 600.000029) matrix(1 0 0 1 -1.900078 -127.923719)  translate(-510.564094, -382.855509)" d="M 533.83 495.32 C 521.89 490.46 505.32 490.15 492.82 494.56 C 487.80 496.34 485.94 496.36 488.23 494.62 C 489.18 493.90 492.69 487.73 496.02 480.90 C 499.35 474.08 502.60 467.60 503.23 466.50 C 503.87 465.40 506.06 459.10 508.11 452.50 C 511.37 441.97 511.94 440.81 512.78 443.00 C 513.31 444.38 515.21 449.77 517.01 455.00 C 518.82 460.23 521.29 465.85 522.50 467.50 C 523.72 469.15 525.97 472.97 527.50 475.99 C 529.03 479.02 532.48 485.04 535.17 489.38 C 537.87 493.72 539.94 497.35 539.78 497.45 C 539.63 497.55 536.95 496.59 533.83 495.32 Z M 458.88 318.11 C 454.77 313.12 454.42 312.57 456.00 313.52 C 456.51 313.82 456.87 314.04 456.95 313.97 C 457.13 313.80 455.95 312.19 452.06 306.85 L 449.62 303.50 L 452.06 305.50 C 453.40 306.60 454.83 307.95 455.23 308.50 C 455.70 309.13 455.98 309.06 455.98 308.31 C 455.99 307.65 455.54 306.84 454.98 306.49 C 453.41 305.52 455.00 303.79 456.82 304.48 C 457.71 304.83 458.12 304.79 457.73 304.39 C 457.34 304.00 457.53 303.07 458.15 302.32 C 459.06 301.23 458.90 301.08 457.39 301.57 C 455.88 302.06 455.80 301.98 456.96 301.16 C 458.22 300.27 458.16 299.84 456.56 298.06 C 455.53 296.93 455.04 296.00 455.47 296.00 C 455.90 296.00 455.68 295.31 454.98 294.48 C 454.28 293.64 454.05 292.63 454.46 292.23 C 454.87 291.83 456.62 293.12 458.35 295.10 C 460.08 297.08 464.03 300.75 467.11 303.25 L 472.73 307.80 L 478.30 306.51 C 483.72 305.25 498.25 303.59 494.74 304.63 C 493.77 304.92 493.25 305.60 493.59 306.14 C 493.97 306.76 492.76 306.92 490.35 306.56 C 488.23 306.25 487.09 306.27 487.80 306.60 C 489.80 307.52 486.12 309.91 482.50 310.05 C 480.85 310.11 480.06 310.38 480.74 310.66 C 484.12 312.02 473.12 317.08 461.38 319.55 C 460.76 319.68 459.64 319.03 458.88 318.11 Z M 428.56 283.24 C 425.84 280.08 424.83 278.59 426.31 279.92 C 427.79 281.26 429.00 281.88 429.00 281.30 C 429.00 280.72 428.35 279.71 427.56 279.05 C 426.43 278.11 426.35 277.32 427.20 275.46 C 427.80 274.13 428.78 273.36 429.38 273.73 C 429.97 274.10 429.45 273.12 428.22 271.55 C 426.98 269.98 426.17 268.50 426.40 268.26 C 426.75 267.92 443.86 281.80 448.76 286.41 C 449.75 287.34 448.93 287.55 445.01 287.37 C 442.26 287.24 440.00 287.48 440.00 287.90 C 440.00 289.07 436.69 288.87 435.06 287.61 C 433.96 286.76 433.79 286.80 434.37 287.75 C 436.29 290.96 433.01 288.41 428.56 283.24 Z M 554.76 317.15 C 552.15 316.24 550.01 314.94 550.01 314.25 C 550.00 313.56 550.39 313.00 550.88 313.00 C 551.36 313.00 552.06 311.76 552.45 310.25 C 552.85 308.66 555.96 304.98 559.82 301.53 L 566.50 295.55 L 560.53 301.78 C 557.25 305.20 555.16 308.00 555.89 308.00 C 556.68 308.00 556.97 308.63 556.62 309.55 C 556.29 310.41 556.39 310.87 556.85 310.59 C 558.19 309.77 562.18 313.08 561.62 314.55 C 561.27 315.47 561.62 315.70 562.72 315.28 C 563.96 314.80 564.19 315.07 563.67 316.41 C 563.30 317.37 563.00 318.35 563.00 318.58 C 563.00 319.40 559.44 318.78 554.76 317.15 Z M 569.00 293.64 C 569.00 292.99 588.54 276.00 589.29 276.00 C 590.26 276.00 589.45 278.66 587.63 281.44 C 586.65 282.94 586.11 284.44 586.43 284.76 C 587.15 285.48 580.20 288.18 577.73 288.15 C 576.70 288.13 576.24 288.58 576.63 289.22 C 577.02 289.84 576.85 290.03 576.24 289.65 C 575.65 289.28 573.78 290.15 572.08 291.58 C 570.39 293.01 569.00 293.94 569.00 293.64 Z M 587.00 292.31 C 587.00 291.81 587.56 290.79 588.25 290.05 C 589.27 288.95 589.16 288.83 587.62 289.37 C 585.84 290.00 585.83 289.91 587.40 287.52 C 588.50 285.83 588.65 285.00 587.86 285.00 C 585.70 285.00 587.94 283.68 590.57 283.40 C 592.64 283.17 592.92 283.39 592.02 284.48 C 591.11 285.58 591.33 285.75 593.19 285.35 L 595.50 284.85 L 593.00 286.97 C 591.62 288.14 589.71 290.02 588.75 291.16 C 587.79 292.29 587.00 292.81 587.00 292.31 Z M 461.00 300.65 C 461.00 299.88 457.21 296.00 456.46 296.00 C 456.01 296.00 456.71 297.12 458.00 298.50 C 460.23 300.88 461.00 301.43 461.00 300.65 Z" stroke-linecap="round"></path>
</g>
		<g id="9b7bcb70-2199-43cb-a8fd-76dd7064c60e-child-5">
<path style="stroke: rgb(193,193,193); stroke-width: 0; stroke-dasharray: none; stroke-linecap: butt; stroke-dashoffset: 0; stroke-linejoin: miter; stroke-miterlimit: 4; fill: rgb(182,186,190); fill-rule: nonzero; opacity: 1;" transform="matrix(2.040366 0 0 2.040366 600.000021 600.000029) matrix(1 0 0 1 0.545828 11.842187)  translate(-513.01, -522.621416)" d="M 478.84 552.08 C 471.50 549.74 467.19 547.02 462.18 541.58 C 453.31 531.96 449.18 518.20 450.50 502.70 C 451.31 493.18 450.21 493.14 446.89 502.56 C 442.30 515.60 440.77 532.86 442.89 547.75 C 443.30 550.64 443.45 553.00 443.22 553.00 C 443.00 553.00 440.04 550.58 436.65 547.62 C 415.52 529.13 392.21 517.87 372.03 516.38 C 367.89 516.08 363.96 515.67 363.29 515.46 C 361.56 514.94 365.78 503.07 371.71 491.79 C 374.93 485.65 378.88 480.13 383.75 474.94 C 387.74 470.70 391.00 466.95 391.00 466.63 C 391.00 466.30 381.35 465.92 369.55 465.77 L 348.11 465.50 L 353.80 461.27 C 365.95 452.24 382.17 445.43 393.96 444.41 C 395.53 444.27 396.92 444.21 398.40 444.27 C 398.39 444.28 398.39 444.28 398.38 444.29 C 398.02 444.64 399.65 448.21 401.99 452.22 C 404.91 457.20 409.86 463.05 417.64 470.73 C 424.55 477.54 427.66 480.27 427.14 481.65 C 426.72 482.79 423.80 483.00 418.50 483.86 C 411.67 484.96 403.13 487.99 398.03 491.11 L 394.55 493.24 L 400.12 494.96 C 409.09 497.74 417.48 504.47 424.76 514.73 L 427.76 518.96 L 431.63 512.28 C 435.36 505.83 448.93 491.00 451.09 491.00 C 451.80 491.00 451.88 492.86 451.32 496.75 C 449.86 506.96 450.48 519.04 452.71 524.02 C 456.60 532.69 467.54 540.85 478.05 542.91 C 482.62 543.80 497.00 544.32 497.00 543.59 C 497.00 543.37 494.98 541.10 492.50 538.55 C 491.91 537.94 491.28 537.25 490.66 536.52 C 493.69 539.80 497.49 542.72 501.52 544.76 C 507.02 547.54 507.08 547.62 505.12 549.39 C 499.97 554.05 488.62 555.21 478.84 552.08 Z M 625.81 444.48 C 628.91 444.31 631.74 444.48 634.30 444.98 C 647.61 447.60 665.24 455.90 675.20 464.24 L 677.91 466.50 L 655.33 466.14 L 632.75 465.78 L 640.71 474.91 C 648.91 484.32 656.36 496.92 660.03 507.58 C 662.80 515.65 662.71 516.00 657.75 516.01 C 651.26 516.03 636.44 519.40 627.36 522.91 C 614.22 527.99 598.09 538.45 585.59 549.97 L 580.69 554.50 L 581.37 550.50 C 583.39 538.60 583.28 526.44 581.07 516.09 C 579.85 510.41 577.80 503.45 576.51 500.63 L 574.16 495.50 L 574.71 503.03 C 575.00 507.03 574.88 511.01 574.40 514.87 C 575.16 506.73 574.45 494.68 572.96 494.17 C 571.72 493.74 571.71 491.00 572.94 491.00 C 575.17 491.00 586.28 502.73 590.97 510.05 C 593.77 514.42 596.24 518.00 596.45 518.00 C 596.65 518.00 598.87 515.13 601.38 511.62 C 608.45 501.71 615.30 496.84 625.49 494.50 L 630.49 493.35 L 626.43 490.66 C 621.39 487.33 612.42 484.12 606.20 483.42 C 603.62 483.13 599.98 482.66 598.13 482.38 L 594.75 481.86 L 603.80 473.42 C 608.78 468.77 614.95 462.18 617.52 458.76 C 622.08 452.69 626.45 445.16 625.81 444.48 Z M 498.11 599.42 C 484.05 595.64 472.32 585.96 465.18 572.23 C 462.83 567.70 461.10 564.00 461.35 564.00 C 461.60 564.00 464.09 565.54 466.89 567.42 C 484.99 579.60 517.92 582.81 543.00 574.84 C 550.05 572.60 557.19 568.92 560.75 565.69 C 561.98 564.57 563.19 563.86 563.43 564.10 C 563.67 564.34 562.48 567.45 560.78 571.02 C 557.00 578.93 544.89 591.51 537.43 595.29 C 526.41 600.86 509.91 602.59 498.11 599.42 Z M 526.07 552.41 C 520.74 550.98 518.00 549.48 518.00 548.01 C 518.00 547.60 520.14 546.36 522.75 545.25 C 526.81 543.53 530.80 540.64 533.95 537.30 C 533.36 538.00 532.76 538.66 532.18 539.25 L 527.58 544.00 L 534.58 544.00 C 548.25 544.00 558.14 540.02 567.05 530.95 C 570.09 527.85 571.55 526.27 572.45 524.27 C 569.42 534.46 563.72 543.05 556.24 547.85 C 550.86 551.30 541.56 554.03 535.54 553.93 C 533.32 553.90 529.06 553.21 526.07 552.41 Z M 508.00 514.51 C 507.17 514.30 503.96 513.84 500.86 513.50 C 497.76 513.16 494.39 512.26 493.36 511.51 C 491.64 510.23 491.87 509.96 496.50 507.85 C 500.76 505.90 503.20 505.56 513.00 505.53 C 522.56 505.51 525.16 505.84 528.45 507.50 C 533.47 510.05 533.89 511.50 529.99 512.85 C 526.77 513.97 510.64 515.19 508.00 514.51 Z M 608.34 448.06 C 613.17 446.49 617.63 445.43 621.71 444.87 C 617.96 445.56 612.39 446.86 608.34 448.06 Z M 400.95 444.49 C 404.47 444.94 409.06 446.06 417.26 448.34 C 410.69 446.56 404.35 445.08 400.95 444.49 Z M 538.37 531.25 C 538.43 531.13 538.49 531.02 538.55 530.90 C 541.39 525.30 542.76 521.58 543.42 513.13 C 542.78 521.38 541.50 525.09 538.90 530.28 C 538.75 530.58 538.58 530.90 538.37 531.25 Z M 600.00 450.33 C 600.03 450.53 601.53 450.21 603.70 449.56 C 601.54 450.23 600.00 450.57 600.00 450.33 Z" stroke-linecap="round"></path>
</g>
		<g id="9b7bcb70-2199-43cb-a8fd-76dd7064c60e-child-6">
<path style="stroke: rgb(193,193,193); stroke-width: 0; stroke-dasharray: none; stroke-linecap: butt; stroke-dashoffset: 0; stroke-linejoin: miter; stroke-miterlimit: 4; fill: rgb(250,250,250); fill-rule: nonzero; opacity: 1;" transform="matrix(2.040366 0 0 2.040366 600.000021 600.000029) matrix(1 0 0 1 0.055828 -55.406873)  translate(-512.52, -455.372355)" d="M 478.05 542.91 C 467.54 540.85 456.60 532.69 452.71 524.02 C 450.48 519.04 449.86 506.96 451.32 496.75 C 451.88 492.86 451.80 491.00 451.09 491.00 C 448.93 491.00 435.36 505.83 431.63 512.28 L 427.76 518.96 L 424.76 514.73 C 417.48 504.47 409.09 497.74 400.12 494.96 L 394.55 493.24 L 398.03 491.11 C 403.13 487.99 411.67 484.96 418.50 483.86 C 430.20 481.97 430.28 483.20 417.64 470.73 C 409.86 463.05 404.91 457.20 401.99 452.22 C 399.65 448.21 398.02 444.64 398.38 444.29 C 398.91 443.76 410.92 446.48 421.84 449.61 C 423.94 450.21 423.75 449.71 420.07 444.89 C 415.68 439.13 412.00 429.19 412.00 423.10 C 412.00 408.84 421.51 393.42 434.48 386.65 C 440.00 383.77 441.30 383.51 450.04 383.51 C 459.17 383.50 459.83 383.65 465.39 387.00 C 479.00 395.19 484.83 408.76 483.62 429.50 C 482.74 444.71 482.10 445.73 479.61 435.85 C 476.06 421.78 470.37 414.60 459.47 410.44 C 453.18 408.03 437.11 408.78 431.43 411.74 C 424.13 415.54 424.12 416.34 431.35 420.38 C 437.45 423.79 437.80 424.19 438.44 428.46 C 439.42 434.96 444.46 441.89 450.46 444.95 C 454.73 447.13 456.92 447.52 466.38 447.74 C 474.92 447.94 477.74 448.36 479.17 449.65 C 480.87 451.19 481.00 453.60 481.01 483.90 C 481.02 518.25 481.29 520.77 485.91 529.83 C 487.06 532.08 490.03 536.01 492.50 538.55 C 494.98 541.10 497.00 543.37 497.00 543.59 C 497.00 544.32 482.62 543.80 478.05 542.91 Z M 532.18 539.25 C 534.72 536.64 537.74 532.60 538.90 530.28 C 543.51 521.05 544.00 516.50 544.00 482.86 C 544.00 455.36 544.21 450.93 545.57 449.57 C 547.27 447.87 547.20 447.88 560.50 447.63 C 567.60 447.50 570.49 446.98 574.17 445.18 C 580.87 441.91 587.00 433.06 587.00 426.67 C 587.00 424.82 588.30 423.52 592.75 420.89 C 595.91 419.03 598.50 416.83 598.50 416.00 C 598.50 413.79 590.10 410.01 582.84 408.95 C 572.37 407.42 562.28 410.30 554.64 417.01 C 550.78 420.40 546.89 428.00 545.05 435.75 C 544.36 438.64 543.46 441.00 543.04 441.00 C 542.10 441.00 541.00 430.88 541.00 422.25 C 541.00 405.01 548.90 391.60 562.80 385.23 C 567.56 383.06 569.23 382.81 576.97 383.18 C 584.81 383.56 586.36 383.97 591.49 387.05 C 612.88 399.91 618.55 428.64 603.15 446.18 C 601.42 448.15 600.00 450.02 600.00 450.33 C 600.00 450.64 602.59 449.99 605.75 448.88 C 611.54 446.85 625.19 443.86 625.81 444.47 C 626.47 445.13 622.09 452.68 617.52 458.76 C 614.95 462.18 608.78 468.77 603.80 473.42 L 594.75 481.86 L 598.13 482.38 C 599.98 482.66 603.62 483.13 606.20 483.42 C 612.42 484.12 621.39 487.33 626.43 490.66 L 630.49 493.35 L 625.49 494.50 C 615.30 496.84 608.45 501.71 601.38 511.62 C 598.87 515.13 596.65 518.00 596.45 518.00 C 596.24 518.00 593.77 514.42 590.97 510.05 C 586.28 502.73 575.17 491.00 572.94 491.00 C 571.71 491.00 571.72 493.74 572.96 494.17 C 574.64 494.75 575.34 510.08 574.03 517.83 C 572.87 524.69 572.49 525.40 567.05 530.95 C 558.14 540.02 548.25 544.00 534.58 544.00 L 527.58 544.00 L 532.18 539.25 Z M 453.07 431.37 C 449.40 426.70 451.03 424.00 457.50 424.00 C 462.30 424.00 464.00 425.35 464.00 429.16 C 464.00 434.35 456.59 435.84 453.07 431.37 Z M 562.65 432.17 C 560.71 430.02 560.51 426.89 562.20 425.20 C 564.12 423.28 571.76 423.68 572.83 425.75 C 575.68 431.29 566.88 436.84 562.65 432.17 Z M 532.62 397.29 C 532.26 395.21 531.69 389.21 531.34 383.97 C 530.65 373.30 532.11 368.43 536.27 367.57 C 543.05 366.17 556.34 366.60 564.96 368.49 C 568.08 369.18 568.25 371.00 565.19 371.00 C 561.62 371.00 550.70 377.17 545.42 382.16 C 541.81 385.58 538.76 389.75 536.59 394.23 L 533.28 401.08 L 532.62 397.29 Z M 488.01 393.75 C 483.29 383.66 467.28 371.00 459.25 371.00 C 458.01 371.00 457.00 370.61 457.00 370.14 C 457.00 368.63 468.00 367.00 478.21 367.00 C 487.20 367.00 488.30 367.21 490.40 369.31 C 493.04 371.95 494.40 378.74 493.60 385.25 C 493.31 387.59 492.81 391.64 492.48 394.25 C 492.15 396.86 491.56 399.00 491.17 399.00 C 490.79 399.00 489.37 396.64 488.01 393.75 Z" stroke-linecap="round"></path>
</g>
</g>
</g>

  </svg>